<?xml version="1.0" encoding="UTF-8"?>
<svg id="Layer_2" data-name="Layer 2" xmlns="http://www.w3.org/2000/svg" viewBox="0 0 367.32 633.6">
  <defs>
    <style>
      .cls-1 {
        fill: #2f4858;
        fill-rule: evenodd;
        stroke-width: 0px;
      }
    </style>
  </defs>
  <g id="Transparent">
    <g>
      <path class="cls-1" d="m183.66,633.6c0-59.89-60.86-116.69-37.08-167.63,7.73-16.55,20.8-32.48,37.08-47.69,16.28,15.21,29.35,31.14,37.08,47.69,23.78,50.94-37.08,107.74-37.08,167.63Z"/>
      <path class="cls-1" d="m367.32,297.7c0,.69-.36,1.34-.95,1.71-49.24,30.66-131.74,71.26-182.71,118.87C132.69,370.67,50.19,330.07.95,299.41c-.59-.37-.95-1.02-.95-1.71-.01-.7.35-1.35.93-1.72C100.22,232.16,169.28,125.3,181.66,1.84c.09-1.04.96-1.84,2-1.84s1.91.8,2,1.84c12.38,123.46,81.44,230.32,180.73,294.14.58.37.94,1.02.93,1.72Z"/>
    </g>
  </g>
</svg>